{
    "asset" : {
        "generator" : "Khronos glTF Blender I/O v1.2.75",
        "version" : "2.0"
    },
    "scene" : 0,
    "scenes" : [
        {
            "name" : "Scene",
            "nodes" : [
                0,
                1,
                2,
                3,
                4,
                5,
                6
            ]
        }
    ],
    "nodes" : [
        {
            "name" : "Light",
            "rotation" : [
                0.16907575726509094,
                0.7558803558349609,
                -0.27217137813568115,
                0.570947527885437
            ],
            "translation" : [
                4.076245307922363,
                5.903861999511719,
                -1.0054539442062378
            ]
        },
        {
            "name" : "Camera",
            "rotation" : [
                0.483536034822464,
                0.33687159419059753,
                -0.20870360732078552,
                0.7804827094078064
            ],
            "translation" : [
                7.358891487121582,
                4.958309173583984,
                6.925790786743164
            ]
        },
        {
            "mesh" : 0,
            "name" : "Cap002",
            "rotation" : [
                0.7071068286895752,
                0,
                0,
                0.7071067094802856
            ]
        },
        {
            "mesh" : 1,
            "name" : "Magnet002",
            "rotation" : [
                0.7071068286895752,
                0,
                0,
                0.7071067094802856
            ]
        },
        {
            "mesh" : 2,
            "name" : "Cylinder",
            "scale" : [
                0.19086629152297974,
                0.19086629152297974,
                0.19086629152297974
            ],
            "translation" : [
                -0.7243162989616394,
                0.7808475494384766,
                -0.5666807293891907
            ]
        },
        {
            "mesh" : 3,
            "name" : "Plane",
            "rotation" : [
                0,
                0,
                -0.7071067690849304,
                0.7071068286895752
            ]
        },
        {
            "mesh" : 4,
            "name" : "BezierCurve",
            "translation" : [
                0,
                0.8546302318572998,
                0.3674418330192566
            ]
        }
    ],
    "materials" : [
        {
            "doubleSided" : true,
            "emissiveFactor" : [
                0,
                0,
                0
            ],
            "name" : "wire_088144225",
            "pbrMetallicRoughness" : {
                "baseColorFactor" : [
                    0.6941680312156677,
                    0.8000000715255737,
                    0,
                    1
                ],
                "metallicFactor" : 0,
                "roughnessFactor" : 0.5
            }
        },
        {
            "doubleSided" : true,
            "name" : "Material.001",
            "pbrMetallicRoughness" : {}
        }
    ],
    "meshes" : [
        {
            "name" : "Cap002",
            "primitives" : [
                {
                    "attributes" : {
                        "POSITION" : 0,
                        "NORMAL" : 1,
                        "TEXCOORD_0" : 2
                    },
                    "indices" : 3,
                    "material" : 0
                }
            ]
        },
        {
            "name" : "Magnet002",
            "primitives" : [
                {
                    "attributes" : {
                        "POSITION" : 4,
                        "NORMAL" : 5,
                        "TEXCOORD_0" : 6
                    },
                    "indices" : 7,
                    "material" : 0
                }
            ]
        },
        {
            "name" : "Cylinder",
            "primitives" : [
                {
                    "attributes" : {
                        "POSITION" : 8,
                        "NORMAL" : 9,
                        "TEXCOORD_0" : 10
                    },
                    "indices" : 11,
                    "material" : 1
                }
            ]
        },
        {
            "name" : "Plane",
            "primitives" : [
                {
                    "attributes" : {
                        "POSITION" : 12,
                        "NORMAL" : 13,
                        "TEXCOORD_0" : 14
                    },
                    "indices" : 15
                }
            ]
        },
        {
            "name" : "BezierCurve",
            "primitives" : [
                {
                    "attributes" : {
                        "POSITION" : 16,
                        "NORMAL" : 17,
                        "TEXCOORD_0" : 18
                    },
                    "indices" : 19,
                    "material" : 1
                }
            ]
        }
    ],
    "accessors" : [
        {
            "bufferView" : 0,
            "componentType" : 5126,
            "count" : 1730,
            "max" : [
                1.5,
                1.5,
                -0.02759999968111515
            ],
            "min" : [
                -1.5,
                -1.5,
                -1.0276000499725342
            ],
            "type" : "VEC3"
        },
        {
            "bufferView" : 1,
            "componentType" : 5126,
            "count" : 1730,
            "type" : "VEC3"
        },
        {
            "bufferView" : 2,
            "componentType" : 5126,
            "count" : 1730,
            "type" : "VEC2"
        },
        {
            "bufferView" : 3,
            "componentType" : 5123,
            "count" : 8640,
            "type" : "SCALAR"
        },
        {
            "bufferView" : 4,
            "componentType" : 5126,
            "count" : 129,
            "max" : [
                0.800000011920929,
                0.7878000140190125,
                -0.009999999776482582
            ],
            "min" : [
                -0.800000011920929,
                -0.7878000140190125,
                -0.6899999976158142
            ],
            "type" : "VEC3"
        },
        {
            "bufferView" : 5,
            "componentType" : 5126,
            "count" : 129,
            "type" : "VEC3"
        },
        {
            "bufferView" : 6,
            "componentType" : 5126,
            "count" : 129,
            "type" : "VEC2"
        },
        {
            "bufferView" : 7,
            "componentType" : 5123,
            "count" : 312,
            "type" : "SCALAR"
        },
        {
            "bufferView" : 8,
            "componentType" : 5126,
            "count" : 384,
            "max" : [
                8.589776992797852,
                1.0000011920928955,
                1
            ],
            "min" : [
                -1,
                -1,
                -1.0000003576278687
            ],
            "type" : "VEC3"
        },
        {
            "bufferView" : 9,
            "componentType" : 5126,
            "count" : 384,
            "type" : "VEC3"
        },
        {
            "bufferView" : 10,
            "componentType" : 5126,
            "count" : 384,
            "type" : "VEC2"
        },
        {
            "bufferView" : 11,
            "componentType" : 5123,
            "count" : 744,
            "type" : "SCALAR"
        },
        {
            "bufferView" : 12,
            "componentType" : 5126,
            "count" : 4,
            "max" : [
                1,
                0,
                1
            ],
            "min" : [
                -1,
                0,
                -1
            ],
            "type" : "VEC3"
        },
        {
            "bufferView" : 13,
            "componentType" : 5126,
            "count" : 4,
            "type" : "VEC3"
        },
        {
            "bufferView" : 14,
            "componentType" : 5126,
            "count" : 4,
            "type" : "VEC2"
        },
        {
            "bufferView" : 15,
            "componentType" : 5123,
            "count" : 6,
            "type" : "SCALAR"
        },
        {
            "bufferView" : 16,
            "componentType" : 5126,
            "count" : 169,
            "max" : [
                1.0849226713180542,
                0.11000000685453415,
                0.6997684836387634
            ],
            "min" : [
                -1.1040951013565063,
                -0.10999999940395355,
                -0.06991518288850784
            ],
            "type" : "VEC3"
        },
        {
            "bufferView" : 17,
            "componentType" : 5126,
            "count" : 169,
            "type" : "VEC3"
        },
        {
            "bufferView" : 18,
            "componentType" : 5126,
            "count" : 169,
            "type" : "VEC2"
        },
        {
            "bufferView" : 19,
            "componentType" : 5123,
            "count" : 864,
            "type" : "SCALAR"
        }
    ],
    "bufferViews" : [
        {
            "buffer" : 0,
            "byteLength" : 20760,
            "byteOffset" : 0
        },
        {
            "buffer" : 0,
            "byteLength" : 20760,
            "byteOffset" : 20760
        },
        {
            "buffer" : 0,
            "byteLength" : 13840,
            "byteOffset" : 41520
        },
        {
            "buffer" : 0,
            "byteLength" : 17280,
            "byteOffset" : 55360
        },
        {
            "buffer" : 0,
            "byteLength" : 1548,
            "byteOffset" : 72640
        },
        {
            "buffer" : 0,
            "byteLength" : 1548,
            "byteOffset" : 74188
        },
        {
            "buffer" : 0,
            "byteLength" : 1032,
            "byteOffset" : 75736
        },
        {
            "buffer" : 0,
            "byteLength" : 624,
            "byteOffset" : 76768
        },
        {
            "buffer" : 0,
            "byteLength" : 4608,
            "byteOffset" : 77392
        },
        {
            "buffer" : 0,
            "byteLength" : 4608,
            "byteOffset" : 82000
        },
        {
            "buffer" : 0,
            "byteLength" : 3072,
            "byteOffset" : 86608
        },
        {
            "buffer" : 0,
            "byteLength" : 1488,
            "byteOffset" : 89680
        },
        {
            "buffer" : 0,
            "byteLength" : 48,
            "byteOffset" : 91168
        },
        {
            "buffer" : 0,
            "byteLength" : 48,
            "byteOffset" : 91216
        },
        {
            "buffer" : 0,
            "byteLength" : 32,
            "byteOffset" : 91264
        },
        {
            "buffer" : 0,
            "byteLength" : 12,
            "byteOffset" : 91296
        },
        {
            "buffer" : 0,
            "byteLength" : 2028,
            "byteOffset" : 91308
        },
        {
            "buffer" : 0,
            "byteLength" : 2028,
            "byteOffset" : 93336
        },
        {
            "buffer" : 0,
            "byteLength" : 1352,
            "byteOffset" : 95364
        },
        {
            "buffer" : 0,
            "byteLength" : 1728,
            "byteOffset" : 96716
        }
    ],
    "buffers" : [
        {
            "byteLength" : 98444,
            "uri" : "data:application/octet-stream;base64,"
        }
    ]
}
